<?xml version="1.0" encoding="UTF-8"?>
<svg width="666px" height="78px" viewBox="0 0 666 78" version="1.1" xmlns="http://www.w3.org/2000/svg" xmlns:xlink="http://www.w3.org/1999/xlink">
    <title>Group</title>
    <g id="Page-1" stroke="none" stroke-width="1" fill="none" fill-rule="evenodd">
        <g id="Artboard" transform="translate(-122.000000, -134.000000)" fill="#0092F6">
            <g id="Group" transform="translate(122.000000, 134.000000)">
                <path d="M0,42 C0,52.1489362 7.4360395,60 17.8086042,60 C28.1811688,60 35.6645716,52.1489362 35.6645716,42 C35.6645716,31.8510638 28.1811688,24 17.8086042,24 C7.4360395,24 0,31.8510638 0,42 Z M6.77295317,42 C6.77295317,35.6329787 11.3671941,30.75 17.8086042,30.75 C24.2973775,30.75 28.8442551,35.6329787 28.8442551,42 C28.8442551,48.3670213 24.2973775,53.25 17.8086042,53.25 C11.3671941,53.25 6.77295317,48.3670213 6.77295317,42 Z M66.0969242,59.4734043 L72.964604,59.4734043 L61.6921365,24.5265957 L54.7297301,24.5265957 L43.3625359,59.4734043 L50.0881258,59.4734043 L51.6984783,54.4946809 L64.4865717,54.4946809 L66.0969242,59.4734043 Z M53.8298272,47.8882979 L58.092525,34.6276596 L62.3552228,47.8882979 L53.8298272,47.8882979 Z M100.128888,34.7234043 L106.901841,34.7234043 C106.901841,28.356383 101.644514,24 94.5400178,24 C87.2934315,24 82.2729208,28.643617 82.2729208,35.0106383 C82.2729208,39.462766 84.7358129,42.9574468 89.2826905,44.25 C92.2928919,45.0925532 95.8464733,44.882435 98.0838677,45.6334515 L98.2343559,45.6861702 C99.6078919,46.1648936 100.697248,47.2659574 100.697248,48.9893617 C100.697248,51.5265957 98.5658991,53.4893617 94.9189243,53.4893617 C91.3666761,53.4893617 88.7143308,51.6223404 88.7143308,48.8457447 L81.9887409,48.8457447 C81.9887409,55.4521277 87.4828848,60 94.8241977,60 C102.402327,60 107.422838,55.212766 107.422838,48.606383 C107.422838,43.9148936 104.723129,40.5159574 100.318341,39.1755319 C97.0029099,38.1702128 93.6401149,38.6010638 91.4140394,37.787234 C89.9457768,37.2606383 88.9985107,36.1595745 88.9985107,34.6755319 C88.9985107,32.3297872 91.0824963,30.5106383 94.4452912,30.5106383 C97.7607228,30.5106383 100.034162,32.1861702 100.128888,34.7234043 Z M119.336137,59.4734043 L126.10909,59.4734043 L126.10909,24.5265957 L119.336137,24.5265957 L119.336137,59.4734043 Z M156.304626,34.7234043 L163.077579,34.7234043 C163.077579,28.356383 157.820252,24 150.715755,24 C143.469169,24 138.448658,28.643617 138.448658,35.0106383 C138.448658,39.462766 140.91155,42.9574468 145.458428,44.25 C148.46863,45.0925532 152.022211,44.882435 154.259605,45.6334515 L154.410093,45.6861702 C155.783629,46.1648936 156.872986,47.2659574 156.872986,48.9893617 C156.872986,51.5265957 154.741637,53.4893617 151.094662,53.4893617 C147.542414,53.4893617 144.890068,51.6223404 144.890068,48.8457447 L138.164479,48.8457447 C138.164479,55.4521277 143.658622,60 150.999935,60 C158.578065,60 163.598575,55.212766 163.598575,48.606383 C163.598575,43.9148936 160.898867,40.5159574 156.494079,39.1755319 C153.178647,38.1702128 149.815853,38.6010638 147.589777,37.787234 C146.121514,37.2606383 145.174248,36.1595745 145.174248,34.6755319 C145.174248,32.3297872 147.258234,30.5106383 150.621029,30.5106383 C153.93646,30.5106383 156.209899,32.1861702 156.304626,34.7234043 Z M195.476936,59.4734043 L202.249889,59.4734043 L202.249889,45.2553191 L213.380266,45.2553191 L213.380266,38.5531915 L202.249889,38.5531915 L202.249889,31.2287234 L222.331932,31.2287234 L222.331932,24.5265957 L195.476936,24.5265957 L195.476936,59.4734043 Z M230.977162,42 C230.977162,52.1489362 238.413202,60 248.785766,60 C259.158331,60 266.641734,52.1489362 266.641734,42 C266.641734,31.8510638 259.158331,24 248.785766,24 C238.413202,24 230.977162,31.8510638 230.977162,42 Z M237.750115,42 C237.750115,35.6329787 242.344356,30.75 248.785766,30.75 C255.27454,30.75 259.821417,35.6329787 259.821417,42 C259.821417,48.3670213 255.27454,53.25 248.785766,53.25 C242.344356,53.25 237.750115,48.3670213 237.750115,42 Z M306.120478,24.5265957 L299.394889,24.5265957 L299.394889,46.0212766 C299.394889,50.0904255 296.458363,53.25 292.337755,53.25 C288.169784,53.25 285.233259,50.0904255 285.233259,46.0212766 L285.233259,24.5265957 L278.460306,24.5265957 L278.460306,46.3085106 C278.460306,54.0159574 284.23863,60 292.337755,60 C300.152701,60 306.120478,54.1595745 306.120478,46.3085106 L306.120478,24.5265957 Z M340.626076,24.5265957 L340.626076,47.3617021 L326.180266,24.5265957 L319.454676,24.5265957 L319.454676,59.4734043 L326.180266,59.4734043 L326.180266,36.6382979 L340.626076,59.4734043 L347.351665,59.4734043 L347.351665,24.5265957 L340.626076,24.5265957 Z M372.479327,24.5265957 L360.92268,24.5265957 L360.92268,59.4734043 L372.479327,59.4734043 C382.520349,59.4734043 389.766935,51.9574468 389.766935,42.0478723 C389.766935,32.1382979 382.520349,24.5265957 372.479327,24.5265957 Z M367.695633,31.2287234 L372.431964,31.2287234 C378.589194,31.2287234 382.993982,35.9202128 382.993982,42.0478723 C382.993982,48.1755319 378.589194,52.7712766 372.431964,52.7712766 L367.695633,52.7712766 L367.695633,31.2287234 Z M420.199288,59.4734043 L427.066968,59.4734043 L415.7945,24.5265957 L408.832094,24.5265957 L397.464899,59.4734043 L404.190489,59.4734043 L405.800842,54.4946809 L418.588935,54.4946809 L420.199288,59.4734043 Z M407.932191,47.8882979 L412.194889,34.6276596 L416.457586,47.8882979 L407.932191,47.8882979 Z M441.585248,59.4734043 L448.358201,59.4734043 L448.358201,31.2287234 L458.399223,31.2287234 L458.399223,24.5265957 L431.544227,24.5265957 L431.544227,31.2287234 L441.585248,31.2287234 L441.585248,59.4734043 Z M469.554709,59.4734043 L476.327662,59.4734043 L476.327662,24.5265957 L469.554709,24.5265957 L469.554709,59.4734043 Z M488.383051,42 C488.383051,52.1489362 495.81909,60 506.191655,60 C516.56422,60 524.047622,52.1489362 524.047622,42 C524.047622,31.8510638 516.56422,24 506.191655,24 C495.81909,24 488.383051,31.8510638 488.383051,42 Z M495.156004,42 C495.156004,35.6329787 499.750245,30.75 506.191655,30.75 C512.680428,30.75 517.227306,35.6329787 517.227306,42 C517.227306,48.3670213 512.680428,53.25 506.191655,53.25 C499.750245,53.25 495.156004,48.3670213 495.156004,42 Z M557.27441,24.5265957 L564,24.5265957 L564,59.4734043 L557.27441,59.4734043 L542.828601,36.6382979 L542.828601,59.4734043 L536.103011,59.4734043 L536.103011,24.5265957 L542.828601,24.5265957 L557.27441,47.3617021 L557.27441,24.5265957 Z" id="OASISFOUNDATION" fill-rule="nonzero"></path>
                <path d="M658.08614,15.4494167 C652.181891,7.89533333 643.515104,3.11458333 633.930721,3.11458333 C615.39463,3.11458333 601.833275,20.3395833 601.833275,39 C601.833275,52.0086667 610.466479,61.7435 620.070362,61.7435 C620.967375,61.7435 621.857887,61.66225 622.735399,61.5008333 C616.30356,56.81 612.187919,48.26575 612.187919,39 C612.187919,24.2460833 622.168808,12.7486667 633.930721,12.7486667 C646.758649,12.7486667 655.67894,25.4875833 655.67894,39 C655.645356,48.9796667 652.08764,58.9019167 645.82697,66.2230833 C640.362561,72.6136667 633.285046,76.6664167 625.503354,77.9523333 C625.503354,77.9523333 626.15228,78 627.000542,78 C648.539674,78 666,60.5388333 666,39 C666,30.1513333 663.051126,21.99275 658.08614,15.4494167 Z M652.166725,39 C652.166725,25.99025 643.533521,16.2554167 633.930721,16.2554167 C633.032625,16.2554167 632.143196,16.3366667 631.264601,16.4991667 C637.697524,21.19 641.812081,29.73425 641.812081,39 C641.812081,53.7539167 631.832275,65.2513333 620.070362,65.2513333 C607.241351,65.2513333 598.322143,52.5124167 598.322143,39 C598.354644,29.0203333 601.913443,19.0980833 608.17303,11.7769167 C613.638523,5.38633333 620.716038,1.33358333 628.496646,0.0476666667 C628.496646,0.0476666667 627.848803,0 627.000542,0 C605.461409,0 588,17.4611667 588,39 C588,47.8475833 590.948874,56.0061667 595.914943,62.5516667 C601.818109,70.1035833 610.485979,74.8854167 620.070362,74.8854167 C638.606453,74.8854167 652.166725,57.6604167 652.166725,39 L652.166725,39 Z" id="Fill-1"></path>
            </g>
        </g>
    </g>
</svg>